<!-- Generator: Adobe Illustrator 23.0.5, SVG Export Plug-In  -->
<svg version="1.1" xmlns="http://www.w3.org/2000/svg" xmlns:xlink="http://www.w3.org/1999/xlink" x="0px" y="0px" width="96.04px"
	 height="119.68px" viewBox="0 0 96.04 119.68" style="enable-background:new 0 0 96.04 119.68;" xml:space="preserve">
<style type="text/css">
	.st0{fill:#F9F7F3;}
</style>
<defs>
</defs>
<g>
	<path d="M20.82,101.87c0.09,0.65,0.35,1.79,1.17,2.92c1.52,2.09,3.83,2.54,4.38,2.63c3.15-0.38,8.64-0.49,13.72,2.63
		c0.75,0.46,1.43,0.95,2.04,1.46c-1.36-0.35-3.49-0.79-6.13-0.88c-4.44-0.14-6.35,0.87-9.34,0c-1.35-0.4-3.26-1.28-5.25-3.5
		c-1.9,2.5-3.84,3.88-5.25,4.67c-3.36,1.88-5.6,1.49-8.76,3.5c-2.18,1.39-3.56,3.14-4.38,4.38c-0.62-0.7-1.43-1.77-2.04-3.21
		c-2.18-5.16-0.57-12.18,3.5-16.35c4.25-4.34,8.35-2.7,11.68-7.59c1.79-2.63,2.13-5.36,2.34-7.01c0.67-5.4-1.16-9.01-2.34-12.84
		c-3.39-11.09-0.42-21.36,0.29-23.64c0.58-1.86,3.09-8.99,9.34-15.18c1.77-1.75,4.46-4,8.17-5.84c2.38-1.17,4.59-1.89,6.42-2.34
		c0.77-1.61,1.73-4,2.34-7.01c0.24-1.22,0.73-3.74,0.58-7.01c-0.24-5.34-1.92-7.06-0.58-9.34c0.71-1.22,2.07-2.23,3.5-2.34
		c2.92-0.22,5.23,3.39,6.42,5.25c4.12,6.43,4.11,14.12,3.5,19.26c3.23,0.55,7.36,1.67,11.68,4.09c11.7,6.55,16.19,17.79,17.51,21.6
		c0.36,1.77,0.74,4.4,0.58,7.59c-0.15,3.18-0.23,4.76-1.17,5.84c-3.14,3.58-12.6,0.3-13.43,0c-3.85-1.38-5.79-3.01-10.51-3.5
		c-2.21-0.23-3.33-0.33-4.38,0.29c-3.37,2.01-1.19,8.28-2.92,13.43c-1.34,3.98-5.43,8.51-16.93,11.68
		c-0.24,0.13-6.03,3.21-8.17,1.17c-1.98-1.88,0.15-7.17,1.75-9.92c2.94-5.08,6.01-4.94,7.59-9.34c0.26-0.74,1.84-5.12-0.58-8.76
		c-2.16-3.24-6.79-4.82-9.92-3.5c-4.49,1.89-4.93,9.28-5.25,14.59c-0.18,3,0.04,5.51,0.29,7.3c0.24,2.19,0.43,6.49-1.46,11.38
		c-1.4,3.63-3.32,5.93-5.55,8.46c-5.35,6.08-9.21,6.76-10.22,11.38c-0.39,1.79-0.37,4.26,0.58,4.67c0.8,0.34,1.7-0.98,3.5-2.33
		c4.92-3.68,9.25-2.09,11.09-5.25C20.62,104.73,21.03,103.64,20.82,101.87z"/>
	<path d="M67.81,73.56c1.32,0.3,6.74,1.37,12.26-1.75c4.36-2.47,6.34-6.17,7.01-7.59c1.25,0.32,3.37,1.07,5.25,2.92
		c3.47,3.42,4.65,9.17,2.92,11.68c-2.54,3.68-12.57,2.2-25.1-3.5C69.37,74.73,68.59,74.15,67.81,73.56z"/>
	<path class="st0" d="M53.8,53.13c3.03,3.81,8,3.81,9.92,1.75c1.81-1.93,1.63-6.43-1.75-9.34c-4.22-4.17-9.47-4.23-11.09-2.33
		C49.37,44.98,50.07,49.55,53.8,53.13z"/>
</g>
</svg>
