<!-- Generator: Adobe Illustrator 23.0.5, SVG Export Plug-In  -->
<svg version="1.1" xmlns="http://www.w3.org/2000/svg" xmlns:xlink="http://www.w3.org/1999/xlink" x="0px" y="0px" width="96.39px"
	 height="100px" viewBox="0 0 96.39 100" style="enable-background:new 0 0 96.39 100;" xml:space="preserve">
<style type="text/css">
	.st0{fill:#F1F1F1;}
</style>
<defs>
</defs>
<g>
	<g>
		<path d="M22.92,69.34c-0.43-1.72-0.73-4.2,0.49-6.33c1.19-2.09,3.52-3.31,12.65-4.87c10.21-1.75,12.34-1.09,16.55-2.92
			c4.53-1.97,7.51-5.11,9.25-7.3c-2.31,19.06-1.08,23.41,0.49,23.85c2.18,0.61,6.17-6.05,7.79-8.76c2.75-4.6,4.14-8.84,4.87-11.68
			c0.81-4.38,1.62-8.76,2.43-13.14c0.96-1.01,23.86-25.54,18.01-34.56c-4.5-6.93-25.51-3.91-51.59,8.76
			c-1.52,0.64-3.86,1.49-6.81,1.95c-7.2,1.12-12-1.01-17.52-1.95c-4.33-0.73-10.69-1-18.98,1.46c-0.61,1.17-0.56,1.99-0.49,2.43
			c1.06,6.06,19.87,4.74,22.39,12.65c0.69,2.16,0.03,4.59,0.97,4.87c1.09,0.32,2.15-2.87,5.84-4.87c1.42-0.77,4.09-1.83,4.87-0.97
			c0.91,1.01-0.97,4.48-2.92,6.81c-4.31,5.17-8.13,3.85-12.65,7.79c-4.67,4.06-5.77,9.97-6.81,15.57c-1.14,6.13-0.61,11.3,0,14.6
			c0.71,3.82,2.68,11.37,8.76,18.49c3.76,4.41,7.8,7.14,10.71,8.76c0.64-0.57,1.53-1.53,1.95-2.92c0.98-3.31-1.76-5.65-2.92-9.73
			c-1.12-3.96-0.6-9.03,1.95-12.65c3.99-5.66,11.57-5.83,12.65-5.84c-1.66-0.99-5.08-2.73-9.73-2.92
			C28.95,65.68,24.51,68.3,22.92,69.34z"/>
	</g>
	<path class="st0" d="M77.43,26.51c2.32-1.66,3.63-3.51,3.89-3.89c0.33-0.48,4.01-5.78,2.92-6.81c-0.78-0.74-3.85,0.82-5.84,2.92
		c-3.08,3.26-3.89,8.22-2.92,8.76C75.81,27.67,76.35,27.28,77.43,26.51z"/>
</g>
</svg>
