<!-- Generator: Adobe Illustrator 23.0.5, SVG Export Plug-In  -->
<svg version="1.1" xmlns="http://www.w3.org/2000/svg" xmlns:xlink="http://www.w3.org/1999/xlink" x="0px" y="0px"
	 width="111.92px" height="97.06px" viewBox="0 0 111.92 97.06" style="enable-background:new 0 0 111.92 97.06;"
	 xml:space="preserve">
<style type="text/css">
	.st0{fill:#FFFFFF;}
</style>
<defs>
</defs>
<g>
	<path d="M9.35,64.91c-0.34-0.7-2.53-5.31-0.59-7.66c1.1-1.33,3.24-1.58,8.84-0.59c8.46,1.5,10.71,3.35,16.5,4.72
		c10.16,2.4,16.91-0.03,17.68,2.36c0.57,1.76-3.15,2.87-4.72,7.07c-2.26,6.04,1.77,13.54,5.89,17.68c4.87,4.9,13.4,8.67,16.5,5.89
		c3.32-2.96-0.64-12.4-2.36-16.5c-2.4-5.73-5.5-9.86-7.66-12.38c0.05-0.46,0.18-1.12,0.59-1.77c1.35-2.11,4.49-2.16,5.89-2.36
		c7.83-1.11,11.53-13.94,14.15-12.97c0.78,0.29,0.91,1.77,1.18,4.72c0.16,1.73,0.43,5.27-1.18,9.43c-1.19,3.07-2.91,5.21-4.13,6.48
		c1.86-0.37,4.69-1.15,7.66-2.95c9.01-5.46,11.57-15.66,12.97-21.22c1.02-4.07,2.27-11.37,0.59-20.63c1.52-0.38,7.22-2.01,11.2-7.66
		c3.51-4.98,3.58-10.09,3.54-11.79c-1.25,0.41-3.31,0.98-5.89,1.18c-6.01,0.47-8.92-1.52-12.97,0c-1.2,0.45-2.94,1.38-4.72,3.54
		c-0.44-2.6-1.48-3.96-2.36-4.72c-1.53-1.32-2.69-0.93-5.89-2.36c-3.38-1.5-3.86-2.73-4.72-2.36c-1.89,0.81-1.62,7.65,1.18,12.97
		c1.14,2.16,2.51,3.72,3.54,4.72c-0.24,1.02-1.21,4.67-4.72,7.07c-2.82,1.94-7,2.87-10.61,1.18c-2.67-1.25-3.96-3.44-4.72-4.72
		c-2.7-4.57-2.1-9.37-1.77-11.2c-1.65,0.04-4.11,0.33-6.48,1.77c-5.94,3.61-4.63,10.38-9.43,14.15c-4.35,3.41-7.71-0.36-16.5,1.18
		C14.7,29.13,5.94,37.67,2.27,46.04c-1.38,3.14-3.63,8.29-1.18,12.97C3.27,63.16,7.89,64.54,9.35,64.91z"/>
	<path class="st0" d="M34.69,41.92c4.53-3.36,12.52-3.86,15.92,0.59c1.4,1.83,2.17,4.71,1.18,7.07c-1.98,4.72-9.81,4.73-13.56,4.13
		c-2.13-0.34-6.72-1.08-7.66-4.13C29.65,46.61,32.79,43.33,34.69,41.92z"/>
	<path d="M22.04,79.1c1.2,2.93,1.86,4.53,3.81,7.03c3.37,4.31,11.67,12.66,15.33,10.61c0.92-0.52,2-1.96,1.77-6.48
		c-0.05-1.61-0.41-7.15-4.72-11.79c-0.52-0.56-4.18-4.4-10.02-5.31c-1.17-0.18-5.87-0.91-7.07,1.18
		C20.89,74.76,20.61,75.61,22.04,79.1z"/>
</g>
</svg>
